<svg width="128" height="128" viewBox="0 0 128 128" xmlns="http://www.w3.org/2000/svg">
  <defs>
    <linearGradient id="bg" x1="0%" y1="0%" x2="100%" y2="100%">
      <stop offset="0%" style="stop-color:#3B82F6;stop-opacity:1" />
      <stop offset="100%" style="stop-color:#1D4ED8;stop-opacity:1" />
    </linearGradient>
    <linearGradient id="shield" x1="0%" y1="0%" x2="100%" y2="100%">
      <stop offset="0%" style="stop-color:#FFFFFF;stop-opacity:1" />
      <stop offset="100%" style="stop-color:#F8FAFC;stop-opacity:1" />
    </linearGradient>
  </defs>
  
  <!-- Background circle -->
  <circle cx="64" cy="64" r="60" fill="url(#bg)" stroke="#1E40AF" stroke-width="2"/>
  
  <!-- Shield shape -->
  <path d="M64 20 L90 35 L90 65 C90 85 64 100 64 100 C64 100 38 85 38 65 L38 35 Z" 
        fill="url(#shield)" 
        stroke="#E2E8F0" 
        stroke-width="1"/>
  
  <!-- Lock icon -->
  <rect x="55" y="50" width="18" height="12" rx="2" fill="#3B82F6"/>
  <path d="M60 50 L60 45 C60 40 64 36 68 36 C72 36 76 40 76 45 L76 50" 
        stroke="#3B82F6" 
        stroke-width="2" 
        fill="none"/>
  
  <!-- Data lines -->
  <rect x="45" y="70" width="38" height="3" rx="1.5" fill="#3B82F6" opacity="0.7"/>
  <rect x="45" y="76" width="30" height="3" rx="1.5" fill="#3B82F6" opacity="0.5"/>
  <rect x="45" y="82" width="25" height="3" rx="1.5" fill="#3B82F6" opacity="0.3"/>
  
  <!-- Privacy dots -->
  <circle cx="50" cy="30" r="2" fill="#10B981" opacity="0.8"/>
  <circle cx="78" cy="30" r="2" fill="#10B981" opacity="0.8"/>
  <circle cx="64" cy="25" r="1.5" fill="#10B981" opacity="0.6"/>
</svg>
